<?xml version="1.0" encoding="UTF-8"?>
<svg version="1.1" xmlns="http://www.w3.org/2000/svg" width="500" height="500">
<path d="M0 0 C165 0 330 0 500 0 C500 165 500 330 500 500 C335 500 170 500 0 500 C0 335 0 170 0 0 Z " fill="#6A3200" transform="translate(0,0)"/>
<path d="M0 0 C1.03549734 0.00037972 2.07099468 0.00075944 3.13787073 0.00115067 C4.92261414 -0.00183591 4.92261414 -0.00183591 6.74341297 -0.00488281 C8.08068642 -0.00202923 9.41795968 0.00091638 10.75523275 0.00394398 C12.16265293 0.0035084 13.57007303 0.00263374 14.97749269 0.00135481 C18.86318027 -0.00089279 22.74884055 0.00313474 26.63452464 0.00813287 C30.81791358 0.01243341 35.00130085 0.01099124 39.18469137 0.0102306 C46.43874441 0.00970511 53.69278849 0.0128545 60.94683927 0.01846844 C71.43510344 0.02658009 81.92336325 0.02919831 92.41163021 0.03045643 C109.42630825 0.03264748 126.4409815 0.03930899 143.45565695 0.04875904 C159.98820878 0.0579318 176.52075933 0.0650133 193.0533132 0.06926686 C194.58076735 0.06966094 194.58076735 0.06966094 196.13907916 0.07006299 C201.24737682 0.07136798 206.35567448 0.0726317 211.46397215 0.07387489 C253.87241886 0.08424915 296.28085672 0.10268833 338.68929952 0.1241985 C338.68929952 29.8241985 338.68929952 59.5241985 338.68929952 90.1241985 C225.82929952 90.1241985 112.96929952 90.1241985 -3.31070048 90.1241985 C-3.31070048 0.17794778 -3.31070048 0.17794778 0 0 Z " fill="#BA5900" transform="translate(82.31070047616959,204.8758015036583)"/>
<path d="M0 0 C54.12 0 108.24 0 164 0 C164 25.74 164 51.48 164 78 C109.88 78 55.76 78 0 78 C0 52.26 0 26.52 0 0 Z " fill="#010101" transform="translate(85,211)"/>
<path d="M0 0 C114.84 0 229.68 0 348 0 C348 31.68 348 63.36 348 96 C233.16 96 118.32 96 0 96 C0 64.32 0 32.64 0 0 Z M3 4 C3 33.37 3 62.74 3 93 C115.86 93 228.72 93 345 93 C345 63.3 345 33.6 345 3 C301.57563663 2.97797455 258.15127851 2.95950272 214.72691116 2.94893467 C209.60594532 2.94768389 204.48497949 2.94638958 199.36401367 2.94506836 C198.34447635 2.94480605 197.32493902 2.94454374 196.27450662 2.94427348 C179.74350546 2.93991638 163.21250777 2.93202862 146.68150867 2.9228472 C129.73244806 2.91351177 112.78338928 2.90794462 95.83432621 2.90591151 C85.36700359 2.90453605 74.89969074 2.90018424 64.43237113 2.89208353 C57.26478051 2.88681743 50.09719499 2.88519539 42.92960257 2.88649862 C38.78780198 2.88714222 34.64601854 2.8861221 30.50422096 2.88079453 C26.71881103 2.87596063 22.93342992 2.87566128 19.14801871 2.87910111 C17.77250473 2.87952681 16.39698901 2.87823099 15.02147848 2.87511682 C13.16384685 2.87115285 11.30620446 2.87384363 9.44857121 2.87695217 C8.41307386 2.87657245 7.37757652 2.87619273 6.31070048 2.8758015 C4.03734922 2.73993883 4.03734922 2.73993883 3 4 Z " fill="#040100" transform="translate(76,202)"/>
<path d="M0 0 C7 0 7 0 9.43359375 2.40625 C10.42552734 3.93765625 10.42552734 3.93765625 11.4375 5.5 C12.11683594 6.5209375 12.79617188 7.541875 13.49609375 8.59375 C13.99238281 9.3878125 14.48867188 10.181875 15 11 C17.70961538 7.65517587 17.70961538 7.65517587 20.2734375 4.19921875 C21.375 2.6875 21.375 2.6875 24 0 C25.98 0 27.96 0 30 0 C30 8.58 30 17.16 30 26 C27.69 26 25.38 26 23 26 C22.67 22.04 22.34 18.08 22 14 C21.443125 14.99 20.88625 15.98 20.3125 17 C18 20 18 20 15.5 20.6875 C12.05787437 19.74091545 10.95446987 17.89551093 9 15 C8.67 18.63 8.34 22.26 8 26 C5.36 26 2.72 26 0 26 C0 17.42 0 8.84 0 0 Z " fill="#FCF9F7" transform="translate(372,236)"/>
<path d="M0 0 C2.536875 -0.061875 5.07375 -0.12375 7.6875 -0.1875 C8.47729248 -0.21481201 9.26708496 -0.24212402 10.08081055 -0.27026367 C14.62090198 -0.3236495 17.37900572 0.25136763 21 3 C22.66561399 4.66561399 22.17115945 6.65962705 22.1875 8.9375 C22.20167969 9.83339844 22.21585937 10.72929687 22.23046875 11.65234375 C22 14 22 14 20 16 C20.38766305 19.58588324 21.58566252 22.69987921 23 26 C20.03 26 17.06 26 14 26 C13.566875 25.030625 13.13375 24.06125 12.6875 23.0625 C11.2985139 19.72268235 11.2985139 19.72268235 8 19 C8 21.31 8 23.62 8 26 C5.36 26 2.72 26 0 26 C0 17.42 0 8.84 0 0 Z " fill="#FEF8F4" transform="translate(272,236)"/>
<path d="M0 0 C2.97 0 5.94 0 9 0 C10.5053109 3.95633425 12.00334593 7.91538367 13.5 11.875 C13.92925781 13.00292969 14.35851562 14.13085938 14.80078125 15.29296875 C15.40986328 16.90751953 15.40986328 16.90751953 16.03125 18.5546875 C16.40830078 19.54968262 16.78535156 20.54467773 17.17382812 21.56982422 C18 24 18 24 18 26 C15.36 26 12.72 26 10 26 C9.67 24.68 9.34 23.36 9 22 C6.03 22.33 3.06 22.66 0 23 C-0.33 23.99 -0.66 24.98 -1 26 C-3.64 26 -6.28 26 -9 26 C-8.38443385 20.11792344 -6.17339219 15.03902565 -3.9375 9.625 C-3.56044922 8.69816406 -3.18339844 7.77132812 -2.79492188 6.81640625 C-1.86873604 4.54197521 -0.93697332 2.27000333 0 0 Z " fill="#FDF9F7" transform="translate(329,236)"/>
<path d="M0 0 C5.94 0 11.88 0 18 0 C18 1.98 18 3.96 18 6 C14.7 6 11.4 6 8 6 C8 7.32 8 8.64 8 10 C10.97 10 13.94 10 17 10 C17 11.98 17 13.96 17 16 C14.03 16 11.06 16 8 16 C8 17.32 8 18.64 8 20 C11.63 20 15.26 20 19 20 C19 21.98 19 23.96 19 26 C12.73 26 6.46 26 0 26 C0 17.42 0 8.84 0 0 Z " fill="#FDF9F5" transform="translate(299,236)"/>
<path d="M0 0 C3.0625 1.9375 3.0625 1.9375 5 5 C5.94728069 9.67719839 5.66588027 12.93459157 3.125 17 C-0.12166803 20.05568756 -2.48634347 20.3919175 -6.9609375 20.359375 C-10.38006698 19.7567698 -11.93189052 17.63213933 -14 15 C-15.55024464 11.89951072 -15.28992015 9.42105782 -15 6 C-10.99881489 -0.1351505 -7.03777522 -1.03139809 0 0 Z " fill="#050505" transform="translate(157,239)"/>
<path d="M0 0 C1.32 0 2.64 0 4 0 C5.78574043 2.31791473 7.26882294 4.50081525 8.75 7 C9.36681641 8.00160156 9.36681641 8.00160156 9.99609375 9.0234375 C11.01028343 10.67444395 12.00684598 12.3362548 13 14 C16.20248658 10.11422426 18.85050383 6.10228574 21.4375 1.79296875 C21.953125 1.20128906 22.46875 0.60960937 23 0 C24.32 0 25.64 0 27 0 C27 8.58 27 17.16 27 26 C25.68 26 24.36 26 23 26 C22.67 20.39 22.34 14.78 22 9 C19.69 12.3 17.38 15.6 15 19 C11 18 11 18 9.078125 15.49609375 C6.5390625 11.24804688 6.5390625 11.24804688 4 7 C3.67 13.27 3.34 19.54 3 26 C2.01 26 1.02 26 0 26 C0 17.42 0 8.84 0 0 Z " fill="#E8E8E8" transform="translate(103,236)"/>
<path d="M0 0 C2.64 0 5.28 0 8 0 C8 6.27 8 12.54 8 19 C11.63 19 15.26 19 19 19 C19 21.31 19 23.62 19 26 C12.73 26 6.46 26 0 26 C0 17.42 0 8.84 0 0 Z " fill="#FBF7F3" transform="translate(350,236)"/>
<path d="M0 0 C2.82378183 2.24241498 5.13301825 4.47413703 6.15625 7.953125 C6.6413324 13.19201493 6.01256117 16.52091801 3.15625 20.953125 C0.82822967 23.71764914 -0.81618467 24.7993824 -4.40234375 25.3359375 C-9.04399769 25.52487864 -12.16746496 25.27347054 -16.40625 23.265625 C-20.3932971 19.48304185 -20.96852876 16.36396 -21.28125 11.015625 C-21.20727258 7.46999302 -20.8560051 5.26853483 -18.65625 2.453125 C-13.20322078 -2.39401209 -6.64252155 -3.77160122 0 0 Z M-16.84375 5.953125 C-18.3985169 9.06265879 -18.13019437 11.51579261 -17.84375 14.953125 C-15.5849563 19.19341119 -15.5849563 19.19341119 -11.84375 21.953125 C-6.03029053 22.48678013 -6.03029053 22.48678013 -0.90625 20.078125 C1.86693709 17.22090194 2.36128898 15.53011754 2.53125 11.640625 C2.46814983 8.08406968 2.19980638 7.02197218 0.21875 3.890625 C-5.85675371 0.04693898 -11.84662472 0.64367939 -16.84375 5.953125 Z " fill="#E9E9E9" transform="translate(159.84375,237.046875)"/>
<path d="M0 0 C5.28 0 10.56 0 16 0 C16 0.99 16 1.98 16 3 C12.04 3 8.08 3 4 3 C4 5.64 4 8.28 4 11 C7.63 11 11.26 11 15 11 C15 11.99 15 12.98 15 14 C11.37 14 7.74 14 4 14 C4 16.97 4 19.94 4 23 C8.29 23 12.58 23 17 23 C17 23.99 17 24.98 17 26 C11.39 26 5.78 26 0 26 C0 17.42 0 8.84 0 0 Z " fill="#E7E7E7" transform="translate(216,236)"/>
<path d="M0 0 C1.87988281 0.24780273 1.87988281 0.24780273 4 1 C5.09667969 2.76586914 5.09667969 2.76586914 5.921875 5.03515625 C6.37626953 6.24848633 6.37626953 6.24848633 6.83984375 7.48632812 C7.14019531 8.33646484 7.44054687 9.18660156 7.75 10.0625 C8.22373047 11.34350586 8.22373047 11.34350586 8.70703125 12.65039062 C9.48567191 14.76215849 10.24916297 16.87822066 11 19 C13.8355396 12.7290291 16.48548588 6.40666097 19 0 C20.32 0 21.64 0 23 0 C20.24892128 8.90054879 16.59701637 17.41643491 13 26 C11.14746094 25.81616211 11.14746094 25.81616211 9 25 C7.71972656 22.80688477 7.71972656 22.80688477 6.640625 19.94140625 C6.05087891 18.40323242 6.05087891 18.40323242 5.44921875 16.83398438 C5.05347656 15.75439453 4.65773437 14.67480469 4.25 13.5625 C3.83878906 12.48677734 3.42757812 11.41105469 3.00390625 10.30273438 C0 2.35385953 0 2.35385953 0 0 Z " fill="#ECECEC" transform="translate(172,236)"/>
<path d="M0 0 C0.99 0 1.98 0 3 0 C3 8.58 3 17.16 3 26 C2.01 26 1.02 26 0 26 C0 17.42 0 8.84 0 0 Z " fill="#F3F3F3" transform="translate(203,236)"/>
<path d="M0 0 C2.31 0.33 4.62 0.66 7 1 C6.67 2.65 6.34 4.3 6 6 C4.02 6 2.04 6 0 6 C0 4.02 0 2.04 0 0 Z " fill="#E7730A" transform="translate(280,242)"/>
<path d="M0 0 C2.5654594 2.5654594 2.54046087 4.47686668 3 8 C1.35 8 -0.3 8 -2 8 C-1.125 2.25 -1.125 2.25 0 0 Z " fill="#CC7729" transform="translate(333,245)"/>
<path d="M0 0 C0.33 0.99 0.66 1.98 1 3 C-1.21934164 6.32901247 -2.34683329 6.75023244 -6 8 C-4.73058503 4.08597051 -3.48832306 2.20927127 0 0 Z " fill="#EFEFEF" transform="translate(124,242)"/>
</svg>
